<svg width="120" height="120" viewBox="0 0 120 120" fill="none" xmlns="http://www.w3.org/2000/svg">
<rect width="120" height="120" rx="4" fill="#000B58"/>
<circle cx="5" cy="5" r="1" fill="#FFE31A"/>
<path d="M4.5 35C4.77614 35 5 34.7761 5 34.5V5H4V34.5C4 34.7761 4.22386 35 4.5 35Z" fill="#FFE31A"/>
<path d="M35 4.5C35 4.77614 34.7761 5 34.5 5L5 5V4L34.5 4C34.7761 4 35 4.22386 35 4.5Z" fill="#FFE31A"/>
<path d="M12.0131 10.425H12.9531C13.6931 10.425 14.1231 10.825 14.1231 11.45V11.54C14.1231 12 13.8881 12.305 13.5181 12.455L14.1481 13.57C14.2381 13.735 14.1731 13.895 14.0181 13.97C13.8631 14.04 13.6831 14.035 13.5981 13.865L12.9131 12.555C12.8781 12.56 12.8381 12.56 12.8031 12.56H12.2281V13.735C12.2281 13.925 12.0781 14.01 11.9081 14.01C11.7381 14.01 11.5881 13.925 11.5881 13.735V10.84C11.5881 10.525 11.6931 10.425 12.0131 10.425ZM12.2281 10.96V12.025H12.8131C13.2981 12.025 13.4881 11.855 13.4881 11.53V11.465C13.4881 11.135 13.2981 10.96 12.8681 10.96H12.2281ZM15.3139 10.425H17.0189C17.1689 10.425 17.2389 10.545 17.2389 10.69C17.2389 10.83 17.1689 10.955 17.0189 10.955H15.5239V11.9H16.9189C17.0639 11.9 17.1339 12.02 17.1339 12.16C17.1339 12.3 17.0639 12.42 16.9189 12.42H15.5239V13.45H17.0539C17.2039 13.45 17.2739 13.575 17.2739 13.715C17.2739 13.86 17.2039 13.98 17.0539 13.98H15.3139C14.9939 13.98 14.8889 13.88 14.8889 13.565V10.84C14.8889 10.525 14.9939 10.425 15.3139 10.425ZM19.3209 10.37C19.7809 10.37 20.1209 10.48 20.3509 10.64C20.5009 10.745 20.5109 10.915 20.4159 11.05C20.3309 11.175 20.1759 11.225 20.0359 11.14C19.8259 11.015 19.6209 10.96 19.3059 10.96C18.7559 10.96 18.4409 11.29 18.4409 12.15V12.255C18.4409 13.09 18.7259 13.44 19.3109 13.44C19.6409 13.44 19.8809 13.365 20.1109 13.21C20.2459 13.12 20.4059 13.14 20.5059 13.28C20.6059 13.42 20.5909 13.605 20.4309 13.72C20.1459 13.925 19.7559 14.035 19.2959 14.035C18.3559 14.035 17.7959 13.52 17.7959 12.305V12.1C17.7959 10.885 18.3559 10.37 19.3209 10.37Z" fill="#F4F6FF"/>
<path d="M44.2147 87.252C44.8167 86.748 45.0547 86.132 45.0547 85.348V84.242C45.0547 83.71 45.4887 83.472 45.9647 83.472C46.4407 83.472 46.8747 83.71 46.8747 84.242V85.292C46.8747 86.076 47.1127 86.692 47.7147 87.196C48.3307 87.7 48.8767 88.106 49.3107 88.414C49.7027 88.694 49.6887 89.142 49.4367 89.492C49.2267 89.786 48.7787 90.024 48.3447 89.73C47.9947 89.492 47.5047 89.114 46.9447 88.666C46.2727 88.12 46.0627 87.868 45.9927 87.602H45.9787C45.9087 87.91 45.6567 88.218 44.9847 88.764C44.4247 89.212 43.9207 89.59 43.3607 89.982C42.9547 90.276 42.4927 90.038 42.2827 89.73C42.0447 89.394 42.0027 88.904 42.4227 88.61C43.0527 88.162 43.5987 87.756 44.2147 87.252ZM52.5587 83.794V89.66C52.5587 90.178 52.1247 90.416 51.6627 90.416C51.2007 90.416 50.7667 90.178 50.7667 89.66V83.794C50.7667 83.276 51.2007 83.038 51.6627 83.038C52.1247 83.038 52.5587 83.276 52.5587 83.794ZM51.3687 96.016H45.3207C44.4247 96.016 44.1307 95.736 44.1307 94.854V92.096C44.1307 91.214 44.4247 90.934 45.3207 90.934H51.3687C52.2647 90.934 52.5587 91.214 52.5587 92.096V94.854C52.5587 95.736 52.2647 96.016 51.3687 96.016ZM46.2307 94.532H50.4587C50.6967 94.532 50.7807 94.448 50.7807 94.21V92.74C50.7807 92.502 50.6967 92.418 50.4587 92.418H46.2307C45.9927 92.418 45.9087 92.502 45.9087 92.74V94.21C45.9087 94.448 45.9927 94.532 46.2307 94.532ZM57.7409 86.02H55.5989C55.1649 86.02 54.9689 85.67 54.9689 85.264C54.9689 84.858 55.1649 84.508 55.5989 84.508H57.7409V83.654C57.7409 83.136 58.1749 82.898 58.6369 82.898C59.0989 82.898 59.5329 83.136 59.5329 83.654V84.508H61.5349C61.9689 84.508 62.1649 84.858 62.1649 85.264C62.1649 85.67 61.9689 86.02 61.5349 86.02H59.5329V86.51C59.5329 87.238 59.7569 87.672 60.3169 88.092C60.9469 88.554 61.4509 88.904 61.8429 89.156C62.2349 89.408 62.2769 89.898 62.0389 90.248C61.8429 90.542 61.4089 90.78 60.9469 90.486C60.6389 90.29 60.1769 89.968 59.6729 89.604C58.9729 89.1 58.7349 88.834 58.6649 88.568H58.6509C58.5809 88.89 58.3009 89.198 57.6009 89.702C57.0549 90.094 56.5929 90.416 56.0469 90.766C55.6409 91.032 55.1929 90.78 54.9969 90.472C54.7869 90.136 54.7449 89.66 55.1789 89.38C55.7529 89.002 56.3129 88.624 56.9569 88.148C57.5169 87.728 57.7409 87.294 57.7409 86.566V86.02ZM63.6069 90.276V88.232H61.9969C61.5629 88.232 61.3669 87.882 61.3669 87.476C61.3669 87.056 61.5629 86.706 61.9969 86.706H63.6069V83.794C63.6069 83.276 64.0409 83.038 64.5029 83.038C64.9509 83.038 65.3849 83.276 65.3849 83.794V90.276C65.3849 90.794 64.9509 91.032 64.5029 91.032C64.0409 91.032 63.6069 90.794 63.6069 90.276ZM56.9709 93.692C56.9709 91.956 58.5669 91.116 61.1989 91.116C63.8309 91.116 65.4269 91.97 65.4269 93.692C65.4269 95.428 63.8309 96.268 61.1989 96.268C58.5669 96.268 56.9709 95.428 56.9709 93.692ZM63.6489 93.692C63.6489 92.992 62.9629 92.544 61.1989 92.544C59.4349 92.544 58.7489 92.992 58.7489 93.692C58.7489 94.392 59.4349 94.84 61.1989 94.84C62.9629 94.84 63.6489 94.392 63.6489 93.692ZM67.7391 88.008C67.7391 85.25 68.8731 83.752 71.1131 83.752C73.3531 83.752 74.4871 85.25 74.4871 88.008C74.4871 90.766 73.3531 92.264 71.1131 92.264C68.8731 92.264 67.7391 90.766 67.7391 88.008ZM72.7651 88.008C72.7651 86.244 72.3311 85.306 71.1131 85.306C69.8951 85.306 69.4611 86.244 69.4611 88.008C69.4611 89.772 69.8951 90.71 71.1131 90.71C72.3311 90.71 72.7651 89.772 72.7651 88.008ZM78.0431 83.794V94.518C78.0431 95.036 77.6091 95.274 77.1331 95.274C76.6711 95.274 76.2371 95.036 76.2371 94.518V83.794C76.2371 83.276 76.6711 83.038 77.1331 83.038C77.6091 83.038 78.0431 83.276 78.0431 83.794Z" fill="#FFE31A"/>
<g clip-path="url(#clip0_95_603)">
<path d="M82.9561 51.6689C77.1258 45.8592 69.2306 42.5972 60.9999 42.5972C52.7692 42.5972 44.8739 45.8592 39.0436 51.6689C38.6905 52.0219 38.4922 52.5008 38.4922 53.0001C38.4922 53.4994 38.6905 53.9783 39.0436 54.3314C39.3967 54.6844 39.8755 54.8828 40.3749 54.8828C40.8742 54.8828 41.353 54.6844 41.7061 54.3314C46.825 49.2179 53.7645 46.3456 60.9999 46.3456C68.2352 46.3456 75.1747 49.2179 80.2936 54.3314C80.4679 54.5071 80.6753 54.6466 80.9038 54.7418C81.1323 54.837 81.3773 54.886 81.6249 54.886C81.8724 54.886 82.1175 54.837 82.3459 54.7418C82.5744 54.6466 82.7818 54.5071 82.9561 54.3314C83.1318 54.1571 83.2713 53.9497 83.3665 53.7212C83.4617 53.4927 83.5107 53.2476 83.5107 53.0001C83.5107 52.7526 83.4617 52.5075 83.3665 52.279C83.2713 52.0505 83.1318 51.8432 82.9561 51.6689ZM75.9999 62.6939C69.9518 66.6493 62.5894 68.0639 55.5061 66.6314C55.0088 66.5319 54.4924 66.6341 54.0704 66.9154C53.6485 67.1967 53.3556 67.6341 53.2561 68.1314C53.1567 68.6286 53.2588 69.1451 53.5401 69.567C53.8214 69.989 54.2588 70.2819 54.7561 70.3814C62.8143 72.0106 71.1899 70.3934 78.0624 65.8814C78.485 65.6079 78.7818 65.1776 78.8873 64.6854C78.9928 64.1931 78.8984 63.679 78.6249 63.2564C78.3514 62.8337 77.9211 62.5369 77.4289 62.4315C76.9366 62.326 76.4225 62.4204 75.9999 62.6939ZM49.1124 64.4751C48.0408 63.9429 47.0015 63.3481 45.9999 62.6939C45.5882 62.473 45.1089 62.4138 44.6558 62.5279C44.2028 62.6419 43.8086 62.921 43.5506 63.3104C43.2925 63.6999 43.1891 64.1716 43.2607 64.6333C43.3322 65.095 43.5735 65.5133 43.9374 65.8064C45.0758 66.5698 46.2662 67.2527 47.4999 67.8501C47.7499 67.9757 48.0263 68.04 48.3061 68.0376C48.7296 68.0351 49.1397 67.8894 49.4698 67.6241C49.7999 67.3588 50.0304 66.9895 50.1239 66.5765C50.2174 66.1635 50.1683 65.731 49.9846 65.3494C49.8009 64.9678 49.4935 64.6597 49.1124 64.4751Z" fill="#FFE31A"/>
<path d="M60.9999 64.25C62.4832 64.25 63.9333 63.8101 65.1666 62.986C66.4 62.1619 67.3613 60.9906 67.929 59.6201C68.4966 58.2497 68.6451 56.7417 68.3557 55.2868C68.0664 53.832 67.3521 52.4956 66.3032 51.4467C65.2543 50.3978 63.9179 49.6835 62.463 49.3941C61.0082 49.1047 59.5002 49.2532 58.1297 49.8209C56.7593 50.3886 55.5879 51.3499 54.7638 52.5832C53.9397 53.8166 53.4999 55.2666 53.4999 56.75C53.4999 58.7391 54.29 60.6468 55.6966 62.0533C57.1031 63.4598 59.0107 64.25 60.9999 64.25ZM60.9999 53C61.7415 53 62.4666 53.2199 63.0832 53.632C63.6999 54.044 64.1806 54.6297 64.4644 55.3149C64.7482 56.0002 64.8225 56.7542 64.6778 57.4816C64.5331 58.209 64.176 58.8772 63.6515 59.4016C63.1271 59.9261 62.4589 60.2833 61.7314 60.4279C61.004 60.5726 60.25 60.4984 59.5648 60.2145C58.8796 59.9307 58.2939 59.4501 57.8818 58.8334C57.4698 58.2167 57.2499 57.4917 57.2499 56.75C57.2499 55.7554 57.6449 54.8016 58.3482 54.0984C59.0515 53.3951 60.0053 53 60.9999 53ZM60.9999 38C61.4971 38 61.9741 37.8025 62.3257 37.4508C62.6773 37.0992 62.8749 36.6223 62.8749 36.125V30.5C62.8749 30.0027 62.6773 29.5258 62.3257 29.1742C61.9741 28.8225 61.4971 28.625 60.9999 28.625C60.5026 28.625 60.0257 28.8225 59.674 29.1742C59.3224 29.5258 59.1249 30.0027 59.1249 30.5V36.125C59.1249 36.6223 59.3224 37.0992 59.674 37.4508C60.0257 37.8025 60.5026 38 60.9999 38ZM70.3749 39.875C70.6837 39.8734 70.9873 39.7955 71.2588 39.6484C71.5303 39.5012 71.7613 39.2892 71.9311 39.0312L75.6811 33.4063C75.8448 33.2031 75.9642 32.968 76.0318 32.716C76.0995 32.464 76.1137 32.2007 76.0738 31.9429C76.0338 31.6851 75.9405 31.4385 75.7998 31.2188C75.6591 30.9991 75.4741 30.8112 75.2566 30.6671C75.0391 30.523 74.794 30.4258 74.5368 30.3819C74.2797 30.3379 74.0162 30.3481 73.7632 30.4118C73.5102 30.4755 73.2733 30.5913 73.0676 30.7517C72.8619 30.9122 72.6919 31.1138 72.5686 31.3437L68.8186 36.9688C68.5472 37.3821 68.4501 37.886 68.5485 38.3706C68.6468 38.8552 68.9326 39.2813 69.3436 39.5562C69.6456 39.7677 70.0062 39.8792 70.3749 39.875ZM50.0686 39.0312C50.2385 39.2892 50.4694 39.5012 50.7409 39.6484C51.0124 39.7955 51.316 39.8734 51.6249 39.875C51.9935 39.8792 52.3542 39.7677 52.6561 39.5562C53.0671 39.2813 53.3529 38.8552 53.4512 38.3706C53.5496 37.886 53.4525 37.3821 53.1811 36.9688L49.4311 31.3437C49.3078 31.1138 49.1378 30.9122 48.9321 30.7517C48.7265 30.5913 48.4895 30.4755 48.2365 30.4118C47.9835 30.3481 47.72 30.3379 47.4629 30.3819C47.2057 30.4258 46.9606 30.523 46.7431 30.6671C46.5256 30.8112 46.3406 30.9991 46.1999 31.2188C46.0592 31.4385 45.9659 31.6851 45.9259 31.9429C45.886 32.2007 45.9003 32.464 45.9679 32.716C46.0355 32.968 46.155 33.2031 46.3186 33.4063L50.0686 39.0312Z" fill="#FFE31A"/>
</g>
<circle cx="26" cy="12" r="2" fill="#FFE31A"/>
<rect x="5" y="5" width="1" height="1" fill="#000B58"/>
<circle cx="5" cy="115" r="1" transform="rotate(-90 5 115)" fill="#FFE31A"/>
<path d="M35 115.5C35 115.224 34.7761 115 34.5 115H5V116H34.5C34.7761 116 35 115.776 35 115.5Z" fill="#FFE31A"/>
<path d="M4.5 85C4.77614 85 5 85.2239 5 85.5L5 115H4L4 85.5C4 85.2239 4.22386 85 4.5 85Z" fill="#FFE31A"/>
<rect x="5" y="115" width="1" height="1" transform="rotate(-90 5 115)" fill="#000B58"/>
<circle cx="115" cy="115" r="1" transform="rotate(180 115 115)" fill="#FFE31A"/>
<path d="M115.5 85C115.224 85 115 85.2239 115 85.5V115H116V85.5C116 85.2239 115.776 85 115.5 85Z" fill="#FFE31A"/>
<path d="M85 115.5C85 115.224 85.2239 115 85.5 115H115V116H85.5C85.2239 116 85 115.776 85 115.5Z" fill="#FFE31A"/>
<rect x="115" y="115" width="1" height="1" transform="rotate(180 115 115)" fill="#000B58"/>
<circle cx="115" cy="5" r="1" transform="rotate(90 115 5)" fill="#FFE31A"/>
<path d="M85 4.5C85 4.77614 85.2239 5 85.5 5H115V4H85.5C85.2239 4 85 4.22386 85 4.5Z" fill="#FFE31A"/>
<path d="M115.5 35C115.224 35 115 34.7761 115 34.5V5H116V34.5C116 34.7761 115.776 35 115.5 35Z" fill="#FFE31A"/>
<rect x="115" y="5" width="1" height="1" transform="rotate(90 115 5)" fill="#000B58"/>
<defs>
<clipPath id="clip0_95_603">
<rect width="50" height="50" fill="white" transform="translate(36 28)"/>
</clipPath>
</defs>
</svg>
