<svg width="430" height="844" viewBox="0 0 430 844" fill="none" xmlns="http://www.w3.org/2000/svg">
<rect width="430" height="1024" fill="#000B58"/>
<rect x="155" y="68" width="120" height="120" rx="4" fill="#000B58"/>
<circle cx="160" cy="73" r="1" fill="#FFE31A"/>
<path d="M159.5 103C159.776 103 160 102.776 160 102.5V73H159V102.5C159 102.776 159.224 103 159.5 103Z" fill="#FFE31A"/>
<path d="M190 72.5C190 72.7761 189.776 73 189.5 73H160V72H189.5C189.776 72 190 72.2239 190 72.5Z" fill="#FFE31A"/>
<path d="M167.013 78.425H167.953C168.693 78.425 169.123 78.825 169.123 79.45V79.54C169.123 80 168.888 80.305 168.518 80.455L169.148 81.57C169.238 81.735 169.173 81.895 169.018 81.97C168.863 82.04 168.683 82.035 168.598 81.865L167.913 80.555C167.878 80.56 167.838 80.56 167.803 80.56H167.228V81.735C167.228 81.925 167.078 82.01 166.908 82.01C166.738 82.01 166.588 81.925 166.588 81.735V78.84C166.588 78.525 166.693 78.425 167.013 78.425ZM167.228 78.96V80.025H167.813C168.298 80.025 168.488 79.855 168.488 79.53V79.465C168.488 79.135 168.298 78.96 167.868 78.96H167.228ZM170.314 78.425H172.019C172.169 78.425 172.239 78.545 172.239 78.69C172.239 78.83 172.169 78.955 172.019 78.955H170.524V79.9H171.919C172.064 79.9 172.134 80.02 172.134 80.16C172.134 80.3 172.064 80.42 171.919 80.42H170.524V81.45H172.054C172.204 81.45 172.274 81.575 172.274 81.715C172.274 81.86 172.204 81.98 172.054 81.98H170.314C169.994 81.98 169.889 81.88 169.889 81.565V78.84C169.889 78.525 169.994 78.425 170.314 78.425ZM174.321 78.37C174.781 78.37 175.121 78.48 175.351 78.64C175.501 78.745 175.511 78.915 175.416 79.05C175.331 79.175 175.176 79.225 175.036 79.14C174.826 79.015 174.621 78.96 174.306 78.96C173.756 78.96 173.441 79.29 173.441 80.15V80.255C173.441 81.09 173.726 81.44 174.311 81.44C174.641 81.44 174.881 81.365 175.111 81.21C175.246 81.12 175.406 81.14 175.506 81.28C175.606 81.42 175.591 81.605 175.431 81.72C175.146 81.925 174.756 82.035 174.296 82.035C173.356 82.035 172.796 81.52 172.796 80.305V80.1C172.796 78.885 173.356 78.37 174.321 78.37Z" fill="#F4F6FF"/>
<path d="M199.215 155.252C199.817 154.748 200.055 154.132 200.055 153.348V152.242C200.055 151.71 200.489 151.472 200.965 151.472C201.441 151.472 201.875 151.71 201.875 152.242V153.292C201.875 154.076 202.113 154.692 202.715 155.196C203.331 155.7 203.877 156.106 204.311 156.414C204.703 156.694 204.689 157.142 204.437 157.492C204.227 157.786 203.779 158.024 203.345 157.73C202.995 157.492 202.505 157.114 201.945 156.666C201.273 156.12 201.063 155.868 200.993 155.602H200.979C200.909 155.91 200.657 156.218 199.985 156.764C199.425 157.212 198.921 157.59 198.361 157.982C197.955 158.276 197.493 158.038 197.283 157.73C197.045 157.394 197.003 156.904 197.423 156.61C198.053 156.162 198.599 155.756 199.215 155.252ZM207.559 151.794V157.66C207.559 158.178 207.125 158.416 206.663 158.416C206.201 158.416 205.767 158.178 205.767 157.66V151.794C205.767 151.276 206.201 151.038 206.663 151.038C207.125 151.038 207.559 151.276 207.559 151.794ZM206.369 164.016H200.321C199.425 164.016 199.131 163.736 199.131 162.854V160.096C199.131 159.214 199.425 158.934 200.321 158.934H206.369C207.265 158.934 207.559 159.214 207.559 160.096V162.854C207.559 163.736 207.265 164.016 206.369 164.016ZM201.231 162.532H205.459C205.697 162.532 205.781 162.448 205.781 162.21V160.74C205.781 160.502 205.697 160.418 205.459 160.418H201.231C200.993 160.418 200.909 160.502 200.909 160.74V162.21C200.909 162.448 200.993 162.532 201.231 162.532ZM212.741 154.02H210.599C210.165 154.02 209.969 153.67 209.969 153.264C209.969 152.858 210.165 152.508 210.599 152.508H212.741V151.654C212.741 151.136 213.175 150.898 213.637 150.898C214.099 150.898 214.533 151.136 214.533 151.654V152.508H216.535C216.969 152.508 217.165 152.858 217.165 153.264C217.165 153.67 216.969 154.02 216.535 154.02H214.533V154.51C214.533 155.238 214.757 155.672 215.317 156.092C215.947 156.554 216.451 156.904 216.843 157.156C217.235 157.408 217.277 157.898 217.039 158.248C216.843 158.542 216.409 158.78 215.947 158.486C215.639 158.29 215.177 157.968 214.673 157.604C213.973 157.1 213.735 156.834 213.665 156.568H213.651C213.581 156.89 213.301 157.198 212.601 157.702C212.055 158.094 211.593 158.416 211.047 158.766C210.641 159.032 210.193 158.78 209.997 158.472C209.787 158.136 209.745 157.66 210.179 157.38C210.753 157.002 211.313 156.624 211.957 156.148C212.517 155.728 212.741 155.294 212.741 154.566V154.02ZM218.607 158.276V156.232H216.997C216.563 156.232 216.367 155.882 216.367 155.476C216.367 155.056 216.563 154.706 216.997 154.706H218.607V151.794C218.607 151.276 219.041 151.038 219.503 151.038C219.951 151.038 220.385 151.276 220.385 151.794V158.276C220.385 158.794 219.951 159.032 219.503 159.032C219.041 159.032 218.607 158.794 218.607 158.276ZM211.971 161.692C211.971 159.956 213.567 159.116 216.199 159.116C218.831 159.116 220.427 159.97 220.427 161.692C220.427 163.428 218.831 164.268 216.199 164.268C213.567 164.268 211.971 163.428 211.971 161.692ZM218.649 161.692C218.649 160.992 217.963 160.544 216.199 160.544C214.435 160.544 213.749 160.992 213.749 161.692C213.749 162.392 214.435 162.84 216.199 162.84C217.963 162.84 218.649 162.392 218.649 161.692ZM222.739 156.008C222.739 153.25 223.873 151.752 226.113 151.752C228.353 151.752 229.487 153.25 229.487 156.008C229.487 158.766 228.353 160.264 226.113 160.264C223.873 160.264 222.739 158.766 222.739 156.008ZM227.765 156.008C227.765 154.244 227.331 153.306 226.113 153.306C224.895 153.306 224.461 154.244 224.461 156.008C224.461 157.772 224.895 158.71 226.113 158.71C227.331 158.71 227.765 157.772 227.765 156.008ZM233.043 151.794V162.518C233.043 163.036 232.609 163.274 232.133 163.274C231.671 163.274 231.237 163.036 231.237 162.518V151.794C231.237 151.276 231.671 151.038 232.133 151.038C232.609 151.038 233.043 151.276 233.043 151.794Z" fill="#FFE31A"/>
<g clip-path="url(#clip0_9_2423)">
<path d="M237.956 119.669C232.126 113.859 224.231 110.597 216 110.597C207.769 110.597 199.874 113.859 194.044 119.669C193.691 120.022 193.492 120.501 193.492 121C193.492 121.499 193.691 121.978 194.044 122.331C194.397 122.684 194.876 122.883 195.375 122.883C195.874 122.883 196.353 122.684 196.706 122.331C201.825 117.218 208.764 114.346 216 114.346C223.235 114.346 230.175 117.218 235.294 122.331C235.468 122.507 235.675 122.647 235.904 122.742C236.132 122.837 236.377 122.886 236.625 122.886C236.872 122.886 237.117 122.837 237.346 122.742C237.574 122.647 237.782 122.507 237.956 122.331C238.132 122.157 238.271 121.95 238.367 121.721C238.462 121.493 238.511 121.248 238.511 121C238.511 120.753 238.462 120.508 238.367 120.279C238.271 120.051 238.132 119.843 237.956 119.669ZM231 130.694C224.952 134.649 217.589 136.064 210.506 134.631C210.009 134.532 209.492 134.634 209.07 134.915C208.648 135.197 208.356 135.634 208.256 136.131C208.157 136.629 208.259 137.145 208.54 137.567C208.821 137.989 209.259 138.282 209.756 138.381C217.814 140.011 226.19 138.393 233.062 133.881C233.485 133.608 233.782 133.178 233.887 132.685C233.993 132.193 233.898 131.679 233.625 131.256C233.351 130.834 232.921 130.537 232.429 130.431C231.937 130.326 231.423 130.42 231 130.694ZM204.112 132.475C203.041 131.943 202.002 131.348 201 130.694C200.588 130.473 200.109 130.414 199.656 130.528C199.203 130.642 198.809 130.921 198.551 131.31C198.293 131.7 198.189 132.172 198.261 132.633C198.332 133.095 198.574 133.513 198.937 133.806C200.076 134.57 201.266 135.253 202.5 135.85C202.75 135.976 203.026 136.04 203.306 136.038C203.73 136.035 204.14 135.889 204.47 135.624C204.8 135.359 205.03 134.99 205.124 134.577C205.217 134.163 205.168 133.731 204.985 133.349C204.801 132.968 204.493 132.66 204.112 132.475Z" fill="#FFE31A"/>
<path d="M216 132.25C217.483 132.25 218.933 131.81 220.167 130.986C221.4 130.162 222.361 128.991 222.929 127.62C223.497 126.25 223.645 124.742 223.356 123.287C223.066 121.832 222.352 120.496 221.303 119.447C220.254 118.398 218.918 117.683 217.463 117.394C216.008 117.105 214.5 117.253 213.13 117.821C211.759 118.389 210.588 119.35 209.764 120.583C208.94 121.817 208.5 123.267 208.5 124.75C208.5 126.739 209.29 128.647 210.697 130.053C212.103 131.46 214.011 132.25 216 132.25ZM216 121C216.742 121 217.467 121.22 218.083 121.632C218.7 122.044 219.181 122.63 219.464 123.315C219.748 124 219.822 124.754 219.678 125.482C219.533 126.209 219.176 126.877 218.652 127.402C218.127 127.926 217.459 128.283 216.731 128.428C216.004 128.573 215.25 128.498 214.565 128.215C213.88 127.931 213.294 127.45 212.882 126.833C212.47 126.217 212.25 125.492 212.25 124.75C212.25 123.755 212.645 122.802 213.348 122.098C214.051 121.395 215.005 121 216 121ZM216 106C216.497 106 216.974 105.802 217.326 105.451C217.677 105.099 217.875 104.622 217.875 104.125V98.5C217.875 98.0027 217.677 97.5258 217.326 97.1742C216.974 96.8225 216.497 96.625 216 96.625C215.503 96.625 215.026 96.8225 214.674 97.1742C214.322 97.5258 214.125 98.0027 214.125 98.5V104.125C214.125 104.622 214.322 105.099 214.674 105.451C215.026 105.802 215.503 106 216 106ZM225.375 107.875C225.684 107.873 225.987 107.796 226.259 107.648C226.53 107.501 226.761 107.289 226.931 107.031L230.681 101.406C230.845 101.203 230.964 100.968 231.032 100.716C231.099 100.464 231.114 100.201 231.074 99.9429C231.034 99.6851 230.941 99.4385 230.8 99.2188C230.659 98.9991 230.474 98.8112 230.257 98.6671C230.039 98.523 229.794 98.4258 229.537 98.3819C229.28 98.3379 229.016 98.3481 228.763 98.4118C228.51 98.4755 228.273 98.5913 228.068 98.7517C227.862 98.9122 227.692 99.1138 227.569 99.3437L223.819 104.969C223.547 105.382 223.45 105.886 223.548 106.371C223.647 106.855 223.933 107.281 224.344 107.556C224.646 107.768 225.006 107.879 225.375 107.875ZM205.069 107.031C205.238 107.289 205.469 107.501 205.741 107.648C206.012 107.796 206.316 107.873 206.625 107.875C206.993 107.879 207.354 107.768 207.656 107.556C208.067 107.281 208.353 106.855 208.451 106.371C208.55 105.886 208.452 105.382 208.181 104.969L204.431 99.3437C204.308 99.1138 204.138 98.9122 203.932 98.7517C203.726 98.5913 203.49 98.4755 203.237 98.4118C202.984 98.3481 202.72 98.3379 202.463 98.3819C202.206 98.4258 201.961 98.523 201.743 98.6671C201.526 98.8112 201.341 98.9991 201.2 99.2188C201.059 99.4385 200.966 99.6851 200.926 99.9429C200.886 100.201 200.9 100.464 200.968 100.716C201.035 100.968 201.155 101.203 201.319 101.406L205.069 107.031Z" fill="#FFE31A"/>
</g>
<circle cx="181" cy="80" r="2" fill="#FFE31A"/>
<rect x="160" y="73" width="1" height="1" fill="#000B58"/>
<circle cx="160" cy="183" r="1" transform="rotate(-90 160 183)" fill="#FFE31A"/>
<path d="M190 183.5C190 183.224 189.776 183 189.5 183H160V184H189.5C189.776 184 190 183.776 190 183.5Z" fill="#FFE31A"/>
<path d="M159.5 153C159.776 153 160 153.224 160 153.5V183H159V153.5C159 153.224 159.224 153 159.5 153Z" fill="#FFE31A"/>
<rect x="160" y="183" width="1" height="1" transform="rotate(-90 160 183)" fill="#000B58"/>
<circle cx="270" cy="183" r="1" transform="rotate(180 270 183)" fill="#FFE31A"/>
<path d="M270.5 153C270.224 153 270 153.224 270 153.5V183H271V153.5C271 153.224 270.776 153 270.5 153Z" fill="#FFE31A"/>
<path d="M240 183.5C240 183.224 240.224 183 240.5 183H270V184H240.5C240.224 184 240 183.776 240 183.5Z" fill="#FFE31A"/>
<rect x="270" y="183" width="1" height="1" transform="rotate(180 270 183)" fill="#000B58"/>
<circle cx="270" cy="73" r="1" transform="rotate(90 270 73)" fill="#FFE31A"/>
<path d="M240 72.5C240 72.7761 240.224 73 240.5 73H270V72H240.5C240.224 72 240 72.2239 240 72.5Z" fill="#FFE31A"/>
<path d="M270.5 103C270.224 103 270 102.776 270 102.5V73H271V102.5C271 102.776 270.776 103 270.5 103Z" fill="#FFE31A"/>
<rect x="270" y="73" width="1" height="1" transform="rotate(90 270 73)" fill="#000B58"/>
<path d="M161.918 213.023V217.242H164.281V219.273H161.918V223.316H159.379V213.023H161.918ZM156.059 223.629C159.711 223.629 162.055 224.957 162.055 227.184C162.055 229.469 159.711 230.797 156.059 230.797C152.328 230.797 149.965 229.469 149.965 227.184C149.965 224.957 152.328 223.629 156.059 223.629ZM156.059 225.602C153.715 225.602 152.406 226.148 152.426 227.184C152.406 228.258 153.715 228.824 156.059 228.824C158.305 228.824 159.633 228.258 159.633 227.184C159.633 226.148 158.305 225.602 156.059 225.602ZM156.391 214.215V216.207H150.883V220.348C154.174 220.328 155.98 220.23 157.973 219.801L158.188 221.793C156 222.281 153.91 222.34 149.887 222.359H148.402V214.215H156.391ZM179.945 213.043V226.012H177.445V213.043H179.945ZM180.414 228.492V230.484H168.031V224.762H170.551V228.492H180.414ZM171.879 215.738C171.859 218.082 173.109 220.387 176.039 221.324L174.77 223.277C172.768 222.613 171.381 221.285 170.59 219.586C169.799 221.412 168.373 222.877 166.293 223.59L165.004 221.617C167.992 220.621 169.281 218.141 169.281 215.738V214.02H171.879V215.738ZM188.109 214.215C190.922 214.195 193.031 216.031 193.031 218.57C193.031 221.129 190.922 222.945 188.109 222.945C185.297 222.945 183.168 221.129 183.168 218.57C183.168 216.031 185.297 214.195 188.109 214.215ZM188.109 216.363C186.703 216.363 185.629 217.184 185.648 218.57C185.629 219.977 186.703 220.777 188.109 220.777C189.516 220.777 190.59 219.977 190.609 218.57C190.59 217.184 189.535 216.363 188.109 216.363ZM197.289 213.023V230.836H194.809V213.023H197.289ZM182.426 225.172C185.59 225.191 189.984 225.133 193.793 224.605L193.988 226.402C190.043 227.164 185.824 227.203 182.719 227.203L182.426 225.172ZM211.156 217.047C211.156 220.309 212.641 223.59 215.648 224.859L214.184 226.852C212.152 225.934 210.746 224.166 209.945 221.969C209.135 224.361 207.68 226.295 205.512 227.281L204.008 225.211C207.113 223.902 208.617 220.504 208.637 217.047V214.391H211.156V217.047ZM219.125 213.023V230.836H216.605V213.023H219.125ZM235.629 213.023V217.184H238.031V219.254H235.629V223.355H233.129V213.023H235.629ZM230.629 214.02C230.629 218.766 227.641 221.969 222.309 223.316L221.273 221.422C225.326 220.406 227.553 218.395 227.934 215.992H222.211V214.02H230.629ZM235.629 224.059V230.797H233.129V226.051H223.656V224.059H235.629ZM257.914 220.973V222.945H252.758V226.734H259.691V228.766H243.422V226.734H250.277V222.945H245.336V214.273H257.777V216.266H247.836V220.973H257.914ZM276.957 222.965V224.996H270.004V230.816H267.543V224.996H260.688V222.965H276.957ZM268.773 213.609C272.582 213.609 275.258 215.191 275.258 217.652C275.258 220.074 272.582 221.617 268.773 221.617C264.965 221.617 262.309 220.074 262.328 217.652C262.309 215.191 264.965 213.609 268.773 213.609ZM268.773 215.602C266.391 215.602 264.867 216.344 264.887 217.652C264.867 218.922 266.391 219.645 268.773 219.645C271.176 219.645 272.68 218.922 272.68 217.652C272.68 216.344 271.176 215.602 268.773 215.602ZM287.465 214.625V226.559H278.871V214.625H287.465ZM281.371 216.578V224.586H285.043V216.578H281.371ZM292.875 213.023V230.836H290.355V213.023H292.875Z" fill="white"/>
<rect x="27" y="350" width="376" height="96" rx="33" fill="#000B58"/>
<rect x="27" y="350" width="376" height="96" rx="33" stroke="#FFE31A" stroke-width="4"/>
<path d="M209.045 380.047V398.133H204.084V389.305H197.405V385.359H204.084V380.047H209.045ZM209.045 399.617V409.109H190.373V411.297H210.061V415.203H185.452V405.477H204.123V403.445H185.412V399.617H209.045ZM192.405 383.797C192.366 388.055 194.866 392.156 200.53 393.836L197.912 397.664C194.104 396.434 191.448 394.051 189.905 390.984C188.362 394.402 185.549 397.098 181.389 398.406L178.811 394.461C184.709 392.742 187.327 388.406 187.366 383.797V381.219H192.405V383.797ZM248.416 380.047V400.867H243.455V396.336H236.814V398.914H219.939V382.664H236.814V385.242H243.455V380.047H248.416ZM224.9 386.609V394.969H231.931V386.609H224.9ZM236.267 401.805C243.845 401.805 248.494 404.344 248.533 408.719C248.494 413.094 243.845 415.594 236.267 415.594C228.689 415.594 224.041 413.094 224.041 408.719C224.041 404.344 228.689 401.805 236.267 401.805ZM236.267 405.594C231.541 405.594 229.002 406.609 229.002 408.719C229.002 410.75 231.541 411.805 236.267 411.805C240.994 411.805 243.572 410.75 243.572 408.719C243.572 406.609 240.994 405.594 236.267 405.594ZM236.814 392.312H243.455V389.188H236.814V392.312Z" fill="#FFE31A"/>
<rect x="25" y="472" width="380" height="100" rx="35" fill="#FFE31A"/>
<path d="M207.131 504.047V517.68H212.17V521.781H207.131V539.516H202.131V504.047H207.131ZM197.639 507.68C197.6 518.305 193.459 527.523 181.506 533.383L178.694 529.555C187.112 525.336 191.623 519.672 192.561 511.742H180.725V507.68H197.639ZM248.22 504.047V523.148H243.22V504.047H248.22ZM229.353 524.711V528.031H243.259V524.711H248.22V539.203H224.431V524.711H229.353ZM229.353 535.18H243.259V531.898H229.353V535.18ZM228.728 505.531C234.275 505.492 238.455 508.969 238.455 513.969C238.455 518.812 234.275 522.289 228.728 522.289C223.181 522.289 219.002 518.812 219.002 513.969C219.002 508.969 223.181 505.492 228.728 505.531ZM228.728 509.672C225.877 509.672 223.845 511.273 223.884 513.969C223.845 516.625 225.877 518.188 228.728 518.188C231.502 518.188 233.533 516.625 233.533 513.969C233.533 511.273 231.502 509.672 228.728 509.672Z" fill="#000B58"/>
<rect x="25" y="596" width="380" height="100" rx="35" fill="#FFE31A"/>
<path d="M192.912 636.094C192.912 642.617 195.881 649.18 201.897 651.719L198.967 655.703C194.905 653.867 192.092 650.332 190.491 645.938C188.87 650.723 185.959 654.59 181.623 656.562L178.616 652.422C184.827 649.805 187.834 643.008 187.873 636.094V630.781H192.912V636.094ZM208.85 628.047V663.672H203.811V628.047H208.85ZM238.65 630.117V634.102H231.58C231.619 638.262 234.08 642.52 239.861 644.375L237.322 648.242C233.377 646.973 230.662 644.434 229.119 641.25C227.537 644.727 224.705 647.48 220.564 648.828L217.908 645C223.787 643.105 226.462 638.555 226.541 634.102H219.275V630.117H238.65ZM246.658 628.047V636.68H251.462V640.82H246.658V649.492H241.658V628.047H246.658ZM246.658 651.016V663.594H241.658V654.961H222.712V651.016H246.658Z" fill="#000B58"/>
<defs>
<clipPath id="clip0_9_2423">
<rect width="50" height="50" fill="white" transform="translate(191 96)"/>
</clipPath>
</defs>
</svg>
